<svg xmlns="http://www.w3.org/2000/svg" font-family="-apple-system, Helvetica, Arial, sans-serif" viewBox="0 0 1100 460"><defs><linearGradient id="actGrad" x1="0" x2="1" y1="0" y2="0"><stop offset="0" stop-color="#e0e0e0"/><stop offset="1" stop-color="#c8402c" stop-opacity=".85"/></linearGradient><marker id="arr" markerHeight="6" markerWidth="6" orient="auto" refX="9" refY="5" viewBox="0 0 10 10"><path fill="#333" d="M0,0 L10,5 L0,10 z"/></marker><marker id="arrRed" markerHeight="6" markerWidth="6" orient="auto" refX="9" refY="5" viewBox="0 0 10 10"><path fill="#c8402c" d="M0,0 L10,5 L0,10 z"/></marker></defs><rect width="460" height="380" x="30" y="40" fill="#fff" stroke="#ddd" stroke-width="1" rx="10"/><text x="50" y="70" fill="#333" font-size="18" font-weight="600">continuous</text><text x="50" y="92" fill="#777" font-size="14">activations, logits, KV cache</text><g fill="none" stroke-width="2"><path stroke="url(#actGrad)" d="M60,160 C160,140 260,180 460,170"/><path stroke="url(#actGrad)" d="M60,200 C160,230 260,190 460,215"/><path stroke="url(#actGrad)" d="M60,240 C160,220 260,270 460,250"/><path stroke="url(#actGrad)" d="M60,280 C160,300 260,260 460,295"/><path stroke="url(#actGrad)" d="M60,320 C160,310 260,340 460,330"/></g><g fill="#bbb"><circle cx="140" cy="250" r="3"/><circle cx="220" cy="250" r="3"/><circle cx="300" cy="250" r="3"/><circle cx="380" cy="250" r="3"/></g><text x="140" y="395" fill="#999" font-size="12" text-anchor="middle">layer 1</text><text x="380" y="395" fill="#999" font-size="12" text-anchor="middle">layer N</text><text x="260" y="120" fill="#555" font-size="14" font-style="italic" text-anchor="middle">smooth, differentiable flow</text><line x1="540" x2="540" y1="60" y2="400" stroke="#c8402c" stroke-dasharray="6 6" stroke-width="1.5"/><rect width="90" height="30" x="495" y="215" fill="#fafafa" stroke="#c8402c" stroke-width="1.5" rx="6"/><text x="540" y="235" fill="#c8402c" font-size="14" font-weight="600" text-anchor="middle">argmax</text><rect width="480" height="380" x="590" y="40" fill="#fff" stroke="#ddd" stroke-width="1" rx="10"/><text x="610" y="70" fill="#333" font-size="18" font-weight="600">discrete</text><text x="610" y="92" fill="#777" font-size="14">tokens, branch decisions</text><g fill="none" stroke="#333" stroke-width="1.5"><line x1="620" x2="680" y1="230" y2="230" marker-end="url(#arr)"/><line x1="690" x2="780" y1="230" y2="180" marker-end="url(#arr)"/><line x1="690" x2="780" y1="230" y2="280" stroke="#c8402c" marker-end="url(#arr)"/><line x1="790" x2="880" y1="180" y2="150"/><line x1="790" x2="880" y1="180" y2="210"/><line x1="790" x2="880" y1="280" y2="260" stroke="#c8402c"/><line x1="790" x2="880" y1="280" y2="310" stroke="#c8402c"/><line x1="890" x2="970" y1="150" y2="130"/><line x1="890" x2="970" y1="150" y2="170"/><line x1="890" x2="970" y1="210" y2="195"/><line x1="890" x2="970" y1="210" y2="225"/><line x1="890" x2="970" y1="260" y2="250" stroke="#c8402c"/><line x1="890" x2="970" y1="260" y2="275" stroke="#c8402c"/><line x1="890" x2="970" y1="310" y2="295" stroke="#c8402c"/><line x1="890" x2="970" y1="310" y2="325" stroke="#c8402c"/></g><g><circle cx="685" cy="230" r="8" fill="#333"/><text x="685" y="218" fill="#333" font-size="11" text-anchor="middle">prompt</text><circle cx="785" cy="180" r="6" fill="#333"/><circle cx="785" cy="280" r="6" fill="#c8402c"/><circle cx="885" cy="150" r="5" fill="#333"/><circle cx="885" cy="210" r="5" fill="#333"/><circle cx="885" cy="260" r="5" fill="#c8402c"/><circle cx="885" cy="310" r="5" fill="#c8402c"/><circle cx="975" cy="130" r="4" fill="#666"/><circle cx="975" cy="170" r="4" fill="#666"/><circle cx="975" cy="195" r="4" fill="#666"/><circle cx="975" cy="225" r="4" fill="#666"/><circle cx="975" cy="250" r="4" fill="#c8402c"/><circle cx="975" cy="275" r="4" fill="#c8402c"/><circle cx="975" cy="295" r="4" fill="#c8402c"/><circle cx="975" cy="325" r="4" fill="#c8402c"/></g><text x="830" y="120" fill="#555" font-size="13" font-style="italic">trajectory A</text><text x="830" y="355" fill="#c8402c" font-size="13" font-style="italic">trajectory B — one flipped argmax</text><text x="550" y="440" fill="#1a1a1a" font-size="16" font-style="italic" text-anchor="middle">Hybrid sequential system: continuous activations feed a discrete branching process.</text></svg>